<svg width="1440" height="172" viewBox="0 0 1440 172" fill="none" xmlns="http://www.w3.org/2000/svg">
<path fill-rule="evenodd" clip-rule="evenodd" d="M-7 0L34.25 12.7407C76.75 25.4815 159.25 50.963 243 50.963C326.75 50.963 409.25 25.4815 493 28.6667C576.75 31.8519 659.25 63.7037 743 73.2593C826.75 82.8148 909.25 70.0741 993 76.4444C1076.75 82.8148 1159.25 108.296 1243 111.481C1326.75 114.667 1409.25 95.5556 1451.75 86L1493 76.4444V172H1451.75C1409.25 172 1326.75 172 1243 172C1159.25 172 1076.75 172 993 172C909.25 172 826.75 172 743 172C659.25 172 576.75 172 493 172C409.25 172 326.75 172 243 172C159.25 172 76.75 172 34.25 172H-7V0Z" fill="#F2F2F2"/>
</svg>
