<svg width="1440" height="1490" viewBox="0 0 1440 1490" fill="none" xmlns="http://www.w3.org/2000/svg">
<rect x="-4.25684" y="265.879" width="1496.88" height="1224.12" rx="15" fill="#F2F2F2"/>
<path fill-rule="evenodd" clip-rule="evenodd" d="M-7.37695 0L33.873 24.3251C76.373 48.6503 158.873 97.3005 242.623 97.3005C326.373 97.3005 408.873 48.6503 492.623 54.7315C576.373 60.8128 658.873 121.626 742.623 139.869C826.373 158.113 908.873 133.788 992.623 145.951C1076.37 158.113 1158.87 206.764 1242.62 212.845C1326.37 218.926 1408.87 182.438 1451.37 164.195L1492.62 145.951V328.389H1451.37C1408.87 328.389 1326.37 328.389 1242.62 328.389C1158.87 328.389 1076.37 328.389 992.623 328.389C908.873 328.389 826.373 328.389 742.623 328.389C658.873 328.389 576.373 328.389 492.623 328.389C408.873 328.389 326.373 328.389 242.623 328.389C158.873 328.389 76.373 328.389 33.873 328.389H-7.37695V0Z" fill="#F2F2F2"/>
</svg>
